<?xml version="1.0" encoding="UTF-8" standalone="no"?>
<svg
   xmlns="http://www.w3.org/2000/svg"
   version="1.1"
   viewBox="0 0 50.800001 10.160394"
   height="38.401489"
   width="192">
  <g
     id="layer1"
     transform="translate(-12.055007,-31.21035)">
    <g
       id="g1018"
       transform="matrix(0.30257909,0,0,0.30257909,8.4074177,21.76675)">
      <path
         d="m 169.96073,39.985742 q 4.47724,0 7.20836,2.686344 2.77589,2.686344 2.77589,7.969488 v 13.789899 h -6.9845 V 51.716111 q 0,-2.865433 -1.25363,-4.253378 -1.25362,-1.432717 -3.62656,-1.432717 -2.64157,0 -4.20861,1.656579 -1.56703,1.611807 -1.56703,4.835419 v 11.909459 h -6.98449 V 31.210352 h 6.98449 v 11.640824 q 1.38794,-1.387944 3.35793,-2.104303 1.96999,-0.761131 4.29815,-0.761131 z"
         style="fill:#232f3e;fill-opacity:1;stroke-width:1.11931"
         id="path1003" />
      <path
         d="m 139.64989,64.789652 q -2.99975,0 -5.86518,-0.716358 -2.86544,-0.761131 -4.56679,-1.880441 l 2.32817,-5.014509 q 1.6118,1.029765 3.8952,1.701351 2.28339,0.626814 4.47724,0.626814 4.43246,0 4.43246,-2.193848 0,-1.029765 -1.20885,-1.477489 -1.20885,-0.447724 -3.71611,-0.761131 -2.95498,-0.447724 -4.88019,-1.029765 -1.92521,-0.582041 -3.35793,-2.05953 -1.38795,-1.47749 -1.38795,-4.208606 0,-2.283392 1.2984,-4.029516 1.34318,-1.790896 3.85043,-2.775889 2.55203,-0.984993 5.9995,-0.984993 2.55203,0 5.05928,0.582042 2.55203,0.537268 4.20861,1.522261 l -2.32817,4.969737 q -3.17884,-1.790896 -6.93972,-1.790896 -2.23862,0 -3.35793,0.626813 -1.11931,0.626814 -1.11931,1.611807 0,1.11931 1.20886,1.567034 1.20885,0.447724 3.85042,0.850675 2.95498,0.492497 4.83542,1.074538 1.88044,0.537269 3.26839,2.014758 1.38794,1.477489 1.38794,4.119061 0,2.23862 -1.34317,3.984743 -1.34317,1.746124 -3.93997,2.731117 -2.55203,0.94022 -6.08905,0.94022 z"
         style="fill:#232f3e;fill-opacity:1;stroke-width:1.11931"
         id="path1001" />
      <path
         d="m 113.63719,39.985742 q 5.59655,0 8.5963,2.686344 2.99975,2.641572 2.99975,8.01426 v 13.745127 h -6.53677 v -2.999751 q -1.96999,3.35793 -7.34268,3.35793 -2.77588,0 -4.83541,-0.94022 -2.01476,-0.940221 -3.0893,-2.5968 -1.07454,-1.656578 -1.07454,-3.760881 0,-3.35793 2.50726,-5.283143 2.55202,-1.925214 7.83517,-1.925214 h 5.55177 q 0,-2.283392 -1.38794,-3.492247 -1.38794,-1.253627 -4.16383,-1.253627 -1.92522,0 -3.80566,0.626814 -1.83567,0.582041 -3.13407,1.611806 l -2.50725,-4.880192 q 1.96999,-1.387944 4.7011,-2.149075 2.77589,-0.761131 5.6861,-0.761131 z m -0.53727,20.102808 q 1.79089,0 3.17884,-0.805903 1.38794,-0.850676 1.96998,-2.462482 v -2.462482 h -4.79064 q -4.29815,0 -4.29815,2.820661 0,1.343172 1.02976,2.149075 1.07454,0.761131 2.91021,0.761131 z"
         style="fill:#232f3e;fill-opacity:1;stroke-width:1.11931"
         id="path999" />
      <path
         d="m 93.176228,48.134319 q 2.686344,0.850676 4.208606,2.865434 1.522261,1.969985 1.522261,4.880191 0,4.119061 -3.223612,6.357681 -3.178841,2.193848 -9.31266,2.193848 H 70.163215 v -31.34068 h 15.31216 q 5.730868,0 8.775391,2.193847 3.089295,2.193848 3.089295,5.95473 0,2.283392 -1.11931,4.074288 -1.074537,1.790896 -3.044523,2.820661 z M 77.371571,38.553026 v 7.387446 h 7.208356 q 2.686344,0 4.074289,-0.940221 1.387944,-0.94022 1.387944,-2.775889 0,-1.835668 -1.387944,-2.731116 -1.387945,-0.94022 -4.074289,-0.94022 z m 8.461984,20.416214 q 2.865433,0 4.29815,-0.94022 1.477489,-0.940221 1.477489,-2.910206 0,-3.895199 -5.775639,-3.895199 h -8.461984 v 7.745625 z"
         style="fill:#232f3e;fill-opacity:1;stroke-width:1.11931"
         id="path997" />
      <path
         d="m 65.289278,63.26739 q -1.029766,0.761131 -2.552027,1.164083 -1.477489,0.358179 -3.134068,0.358179 -4.298151,0 -6.671088,-2.193848 Q 50.60393,60.401957 50.60393,56.148579 V 46.253878 H 46.887821 V 40.88119 h 3.716109 v -5.865184 h 6.984495 v 5.865184 h 5.999501 v 5.372688 h -5.999501 v 9.805156 q 0,1.522262 0.761131,2.372937 0.805903,0.805903 2.23862,0.805903 1.656578,0 2.820661,-0.895448 z"
         style="fill:#ff9900;fill-opacity:1;stroke-width:1.11931"
         id="path994" />
      <path
         d="M 36.81413,57.715613 H 22.2631 l -2.775888,6.71586 h -7.432219 l 13.968989,-31.34068 h 7.163584 l 14.013761,31.34068 H 39.590019 Z M 34.530738,52.208608 29.561002,40.209604 24.591265,52.208608 Z"
         style="fill:#ff9900;fill-opacity:1;stroke-width:1.11931"
         id="path992" />
    </g>
  </g>
</svg>
